<?xml version="1.0" standalone="no"?>
<!DOCTYPE svg PUBLIC "-//W3C//DTD SVG 20010904//EN"
 "http://www.w3.org/TR/2001/REC-SVG-20010904/DTD/svg10.dtd">
<svg version="1.0" xmlns="http://www.w3.org/2000/svg"
 width="403.000000pt" height="455.000000pt" viewBox="0 0 403.000000 455.000000"
 preserveAspectRatio="xMidYMid meet">

<g transform="translate(0.000000,455.000000) scale(0.100000,-0.100000)"
fill="#000000" stroke="none">
<path d="M1015 4533 c-266 -37 -517 -224 -640 -476 -68 -140 -89 -241 -88
-417 1 -204 30 -331 124 -526 72 -151 243 -395 271 -386 5 1 7 -1 4 -6 -7 -11
180 -194 294 -289 169 -140 701 -525 774 -560 l36 -17 41 40 c22 21 49 54 60
72 12 17 25 32 30 32 5 0 -2 -17 -16 -37 -14 -21 -35 -57 -47 -80 -18 -36 -19
-44 -8 -58 16 -20 159 -105 176 -105 20 0 232 141 400 266 89 65 235 173 325
239 359 263 573 459 705 646 77 110 176 306 214 426 99 307 67 619 -86 856
-112 172 -290 304 -494 363 -51 15 -98 19 -215 19 -136 0 -159 -3 -245 -28
-171 -51 -306 -133 -436 -261 -63 -63 -174 -214 -174 -237 0 -23 -19 -3 -59
62 -144 234 -378 400 -639 454 -68 14 -233 18 -307 8z m236 -63 c115 -20 120
-21 162 -39 16 -6 33 -9 38 -5 5 3 9 0 9 -5 0 -6 3 -10 8 -9 13 3 162 -74 162
-84 0 -5 4 -7 9 -4 5 3 12 -1 15 -10 4 -9 9 -14 13 -10 3 3 12 -3 20 -14 8
-11 19 -20 24 -20 11 0 142 -131 143 -143 1 -5 8 -14 16 -20 8 -7 21 -24 29
-39 8 -15 22 -36 31 -45 9 -10 16 -21 16 -25 -1 -3 9 -20 22 -37 23 -32 62
-42 62 -17 0 8 7 17 16 20 9 4 14 9 11 12 -3 3 2 14 11 25 9 11 16 22 15 24
-1 3 9 16 22 31 14 15 22 30 20 34 -3 4 2 10 10 14 8 3 15 11 15 19 0 7 20 30
45 51 25 22 45 45 45 53 0 8 4 12 8 9 5 -3 23 10 40 29 16 19 35 35 41 35 6 0
11 5 11 10 0 6 7 10 15 10 8 0 15 5 15 10 0 6 7 10 15 10 8 0 15 5 15 11 0 5
5 7 10 4 6 -3 10 -1 10 5 0 6 5 8 10 5 6 -3 10 -2 10 3 0 9 37 25 53 23 4 -1
7 4 7 11 0 6 3 9 6 5 4 -3 23 2 43 12 103 52 335 77 452 48 35 -9 75 -18 89
-21 41 -6 150 -55 173 -77 11 -10 27 -19 34 -19 7 0 13 -5 13 -11 0 -5 4 -8 9
-4 6 3 15 -4 21 -15 6 -11 15 -20 20 -20 11 0 140 -131 140 -142 0 -4 5 -8 11
-8 5 0 7 -5 4 -10 -3 -6 1 -13 9 -16 9 -3 16 -12 16 -20 0 -8 4 -14 8 -14 8 0
36 -60 33 -72 0 -5 3 -8 9 -8 5 0 10 -8 10 -18 0 -10 5 -23 12 -30 7 -7 8 -12
4 -12 -5 0 -3 -7 4 -15 7 -8 9 -15 6 -15 -4 0 -2 -9 4 -20 6 -10 13 -41 16
-67 3 -26 8 -51 10 -55 3 -4 5 -63 5 -130 0 -93 -6 -154 -25 -247 -14 -68 -30
-128 -35 -135 -5 -6 -9 -13 -9 -16 -1 -11 -23 -67 -37 -92 -8 -14 -15 -33 -15
-42 0 -9 -5 -16 -11 -16 -5 0 -7 -4 -4 -10 3 -5 1 -10 -5 -10 -6 0 -8 -4 -5
-10 3 -5 2 -10 -3 -10 -9 0 -47 -70 -44 -83 1 -4 -5 -10 -13 -13 -8 -3 -12
-10 -9 -15 3 -5 0 -9 -5 -9 -6 0 -11 -7 -11 -15 0 -8 -4 -15 -10 -15 -5 0 -10
-6 -10 -14 0 -8 -7 -17 -16 -20 -8 -3 -13 -10 -10 -15 3 -5 -1 -11 -9 -15 -8
-3 -15 -11 -15 -18 0 -7 -9 -19 -20 -26 -11 -7 -20 -17 -20 -22 0 -12 -229
-240 -241 -240 -5 0 -16 -11 -25 -25 -9 -14 -22 -25 -29 -25 -7 0 -20 -11 -29
-25 -9 -14 -21 -23 -26 -20 -5 3 -15 -3 -22 -15 -7 -11 -18 -20 -23 -20 -6 0
-28 -15 -48 -34 -21 -19 -44 -37 -52 -40 -8 -3 -15 -10 -15 -16 0 -6 -5 -8
-10 -5 -6 3 -13 -1 -16 -9 -3 -9 -13 -16 -20 -16 -8 0 -17 -7 -20 -15 -4 -8
-13 -15 -20 -15 -8 0 -17 -7 -20 -15 -4 -8 -12 -15 -20 -15 -8 0 -14 -5 -14
-12 0 -6 -3 -9 -6 -5 -6 6 -17 -1 -55 -35 -10 -10 -22 -18 -25 -17 -3 0 -18
-10 -34 -24 -15 -14 -31 -23 -34 -20 -3 3 -8 -2 -12 -11 -3 -9 -12 -16 -19
-16 -7 0 -16 -7 -19 -16 -3 -8 -10 -12 -16 -9 -6 3 -13 -1 -16 -9 -3 -9 -10
-13 -15 -10 -5 3 -9 0 -9 -7 0 -8 -15 -10 -48 -7 -35 3 -55 12 -75 32 -15 15
-27 31 -27 35 0 5 -7 14 -15 21 -9 7 -13 15 -10 18 3 3 1 10 -4 16 -17 21 -42
151 -42 221 0 88 16 191 41 261 10 30 15 54 12 54 -4 0 -2 4 5 8 6 4 13 14 15
21 2 8 10 23 18 33 8 10 14 22 13 26 -5 18 45 52 92 63 62 14 85 8 85 -21 0
-26 28 -82 46 -93 8 -4 14 -14 14 -21 0 -16 34 -48 43 -40 3 3 10 -4 17 -15 6
-12 15 -19 19 -17 4 3 17 -3 29 -14 11 -11 43 -25 69 -31 26 -6 56 -15 65 -20
14 -7 16 -4 11 29 -3 20 -11 46 -17 57 -5 11 -10 24 -11 28 0 5 -8 14 -17 21
-10 7 -18 18 -18 23 0 12 -47 53 -53 46 -3 -2 -10 5 -17 16 -6 12 -15 21 -20
21 -5 0 -19 8 -30 17 -22 19 -130 53 -167 53 -14 0 -23 6 -23 15 0 8 7 15 15
15 8 0 15 5 15 10 0 6 3 9 8 8 4 -1 21 4 37 11 17 7 65 15 108 18 67 5 77 3
77 -11 0 -20 89 -116 107 -116 7 0 13 -4 13 -9 0 -21 127 -52 206 -50 l78 2
-28 23 c-15 13 -24 24 -20 24 4 0 -21 27 -56 60 -35 33 -69 60 -77 60 -7 0
-13 5 -13 12 0 6 -3 8 -6 5 -4 -3 -15 -2 -26 4 -11 6 -27 12 -36 14 -9 3 -35
9 -57 14 -44 11 -160 9 -187 -3 -14 -6 -18 -3 -18 13 0 16 8 23 30 28 17 3 30
10 30 16 0 6 3 8 6 5 3 -4 31 5 62 19 63 28 77 32 141 40 34 5 46 2 53 -11 5
-9 14 -16 21 -16 7 0 23 -12 36 -25 12 -14 27 -22 32 -19 5 3 9 1 9 -3 0 -5
26 -16 59 -26 57 -17 178 -16 206 1 5 3 15 7 20 8 6 1 23 7 39 13 28 11 28 12
11 31 -10 11 -24 20 -31 20 -7 0 -14 3 -16 8 -7 15 -96 51 -154 61 -61 11
-119 10 -201 -4 -37 -7 -43 -5 -43 10 0 10 3 15 6 12 4 -4 19 0 33 7 14 8 41
20 59 26 17 7 32 17 32 22 0 5 5 6 10 3 6 -3 10 -1 10 5 0 6 5 8 10 5 6 -3 10
-1 10 5 0 6 5 8 10 5 6 -3 10 -2 10 3 0 12 72 29 130 31 67 2 135 20 159 42
12 11 21 16 21 12 0 -4 5 0 11 10 6 9 13 16 17 14 4 -2 18 8 32 21 14 14 18
22 10 18 -8 -4 -5 1 6 11 12 10 27 28 33 40 9 18 8 23 -9 28 -37 12 -170 -18
-170 -38 0 -4 -4 -6 -9 -3 -5 4 -11 2 -13 -4 -2 -6 -13 -12 -25 -14 -11 -3
-39 -16 -62 -30 -47 -30 -55 -32 -48 -11 4 8 1 17 -4 21 -12 7 -71 -45 -64
-57 3 -4 -9 -17 -25 -29 -17 -12 -29 -25 -26 -28 15 -14 -80 -79 -106 -74 -5
1 -8 -4 -8 -11 0 -7 -11 -14 -25 -15 -14 -1 -38 -10 -53 -19 -25 -17 -25 -16
7 25 19 23 40 42 47 42 6 0 14 7 18 15 3 8 10 15 15 15 19 0 130 118 137 145
3 14 11 25 17 25 6 0 7 3 4 7 -4 3 -2 12 4 20 6 7 8 13 4 13 -4 0 -2 7 5 15
15 18 25 121 16 169 l-7 36 -27 -32 c-15 -18 -37 -41 -50 -51 -12 -10 -20 -22
-17 -27 3 -4 -2 -11 -11 -14 -8 -3 -12 -10 -9 -16 3 -5 2 -10 -3 -10 -24 0
-77 -180 -70 -234 3 -27 -45 -86 -69 -86 -8 0 -16 -7 -19 -15 -4 -8 -13 -15
-20 -15 -8 0 -17 -7 -20 -15 -4 -8 -9 -13 -14 -10 -4 2 -22 -9 -40 -25 -19
-17 -37 -30 -41 -30 -4 0 -14 -3 -23 -6 -12 -4 -16 0 -16 15 0 12 3 21 8 21
15 0 129 115 145 147 32 62 45 119 49 210 3 78 1 90 -12 83 -20 -11 -69 -65
-50 -56 8 4 3 -3 -11 -16 -31 -28 -73 -88 -62 -88 4 0 2 -4 -4 -8 -7 -5 -25
-62 -39 -128 -15 -65 -31 -121 -36 -122 -4 -2 -6 -8 -2 -13 3 -5 -1 -9 -8 -9
-7 0 -19 -9 -26 -20 -7 -12 -16 -19 -21 -16 -4 3 -19 -6 -33 -19 -14 -13 -29
-21 -32 -18 -3 4 -6 2 -6 -3 0 -6 -16 -16 -35 -23 -19 -7 -35 -17 -35 -22 0
-6 -4 -7 -10 -4 -5 3 -10 1 -10 -4 0 -6 -7 -11 -15 -11 -19 0 -19 34 0 53 8 8
11 17 8 21 -4 3 -1 6 6 6 7 0 9 5 6 10 -3 6 -1 10 5 10 6 0 8 5 5 10 -3 6 -2
10 3 10 15 0 33 112 26 165 -4 28 -14 58 -23 69 -9 10 -14 21 -12 25 3 3 -3 7
-11 9 -11 2 -27 -19 -52 -68 -34 -68 -35 -76 -33 -158 2 -52 9 -96 17 -109 12
-19 12 -26 0 -50 -19 -37 -136 -153 -155 -153 -18 0 -20 21 -3 38 7 7 9 12 5
12 -3 0 0 18 8 41 8 22 26 107 40 187 14 81 33 170 43 197 9 28 17 52 17 55 0
3 9 21 20 40 11 19 18 38 17 43 -1 4 3 7 8 7 6 0 10 5 10 11 0 7 12 23 28 37
15 13 21 21 15 18 -7 -4 20 25 60 65 76 76 91 82 167 66 108 -24 256 -16 298
16 6 5 12 7 12 3 0 -4 15 1 33 11 17 9 35 16 40 15 4 -1 7 3 7 9 0 5 4 8 9 4
5 -3 16 2 24 10 9 8 21 15 28 15 15 0 6 10 -13 14 -13 3 -21 6 -83 29 -40 15
-50 17 -122 25 -48 5 -61 10 -54 20 4 7 23 15 42 18 84 12 153 26 168 34 9 5
31 14 49 20 17 7 32 17 32 22 0 5 4 7 9 4 5 -3 20 5 35 19 14 13 26 21 26 18
0 -4 16 8 35 27 19 18 33 36 30 38 -2 3 8 14 22 26 l27 20 -35 8 c-44 9 -128
-1 -156 -20 -13 -8 -23 -11 -23 -8 0 11 -74 -31 -106 -60 -17 -16 -43 -38 -58
-48 -14 -11 -32 -30 -39 -44 -6 -13 -25 -31 -42 -40 -16 -10 -32 -20 -33 -25
-2 -4 -8 -5 -13 -1 -5 3 -9 1 -9 -4 0 -5 -6 -9 -12 -9 -7 0 -21 -4 -30 -8 -37
-15 -17 21 37 69 30 26 53 52 50 56 -3 5 5 16 17 24 12 9 18 16 13 16 -6 0 -5
4 1 8 6 4 25 38 44 76 28 59 33 80 34 147 0 43 -2 81 -6 84 -10 10 -48 -14
-48 -30 0 -7 -11 -22 -25 -33 -14 -11 -25 -25 -25 -31 0 -6 -4 -11 -8 -11 -18
0 -62 -122 -86 -239 -9 -47 -23 -82 -38 -99 -13 -14 -16 -22 -8 -17 8 4 -1 -8
-19 -28 -19 -21 -41 -37 -48 -37 -7 0 -13 -7 -13 -16 0 -8 -4 -13 -9 -10 -5 4
-21 -7 -34 -24 -23 -27 -47 -39 -47 -24 0 15 44 150 51 154 6 4 19 43 38 115
2 11 5 54 5 95 -1 55 -6 83 -19 103 -9 15 -14 27 -11 27 4 0 2 9 -4 20 -10 18
-13 19 -31 6 -12 -8 -32 -36 -45 -63 -33 -68 -33 -163 2 -288 15 -54 14 -68
-7 -136 -21 -67 -68 -139 -90 -139 -11 0 -1 71 13 88 19 22 4 172 -22 227 -13
28 -28 53 -34 57 -6 4 -7 8 -2 8 5 0 -12 20 -38 45 -27 25 -52 45 -57 45 -5 0
-7 -17 -5 -37 3 -21 8 -71 11 -112 5 -71 47 -191 67 -191 4 0 8 -7 8 -15 0 -8
9 -20 20 -27 25 -16 25 -43 1 -94 -11 -21 -17 -42 -15 -45 2 -4 -3 -10 -12
-13 -8 -3 -13 -10 -10 -15 3 -5 -1 -12 -10 -15 -8 -3 -13 -10 -10 -15 3 -5 -1
-12 -9 -15 -8 -3 -14 -11 -13 -18 2 -6 -4 -13 -12 -15 -13 -3 -16 10 -16 85 0
58 -4 95 -12 105 -7 8 -15 25 -17 38 -3 13 -15 32 -27 41 -13 10 -19 18 -14
18 15 0 -36 50 -51 50 -7 0 -13 5 -13 11 0 5 -4 8 -9 4 -5 -3 -16 2 -24 10 -9
8 -19 15 -23 15 -9 0 1 -153 11 -171 5 -8 10 -21 12 -29 1 -8 7 -16 12 -18 6
-2 11 -8 11 -13 0 -12 73 -84 99 -98 24 -14 24 -14 -31 -226 -21 -82 -42 -169
-45 -192 -3 -27 -11 -43 -19 -43 -8 0 -14 6 -14 14 0 8 -10 36 -22 63 -12 26
-22 51 -22 55 -1 4 -10 18 -21 30 -10 13 -19 25 -18 28 1 10 -31 70 -38 70 -4
0 -5 19 -3 43 15 163 15 204 4 258 -7 33 -17 62 -21 65 -5 3 -9 14 -9 24 0 10
-7 26 -16 34 -8 9 -12 16 -8 16 4 0 -1 9 -11 20 -10 11 -22 20 -26 20 -5 0
-16 -26 -25 -57 -13 -44 -15 -77 -10 -141 3 -47 9 -89 13 -96 4 -6 8 -15 9
-21 1 -5 5 -22 9 -37 8 -31 -5 -37 -25 -13 -6 8 -15 14 -18 12 -4 -1 -22 13
-41 30 -19 18 -38 30 -43 27 -4 -3 -8 0 -8 5 0 6 -7 11 -15 11 -10 0 -15 10
-16 28 0 15 -3 38 -5 52 -2 13 -1 31 2 40 4 8 8 17 8 20 1 3 7 14 13 26 19 33
35 146 30 210 -6 77 -17 124 -29 124 -5 0 -7 4 -3 9 3 5 -2 16 -10 25 -9 8
-16 18 -15 21 0 3 -2 5 -5 5 -3 0 -12 0 -20 0 -29 0 -65 -112 -65 -201 0 -62
21 -149 43 -176 5 -7 6 -13 3 -13 -4 0 -3 -8 2 -17 5 -10 12 -35 16 -55 6 -33
4 -38 -12 -38 -19 0 -54 30 -36 30 5 0 1 5 -9 11 -9 6 -15 14 -12 19 3 5 -4
15 -15 23 -11 7 -17 17 -13 20 3 4 2 7 -4 7 -5 0 -10 6 -11 13 -4 35 -23 129
-31 149 -5 13 -6 58 -3 100 4 71 -10 187 -26 213 -7 11 -9 17 -11 39 0 8 -7
21 -14 28 -8 7 -20 27 -28 43 -8 17 -19 30 -24 30 -6 0 -15 4 -21 8 -16 9 -24
-15 -30 -88 -6 -60 14 -163 36 -190 5 -6 7 -15 3 -18 -3 -4 -1 -7 6 -7 7 0 10
-4 6 -9 -3 -5 1 -16 9 -24 8 -8 12 -17 9 -21 -4 -3 -2 -6 4 -6 5 0 10 -6 10
-12 0 -7 4 -22 9 -33 7 -18 6 -19 -11 -5 -50 39 -64 54 -59 61 3 5 -4 14 -16
21 -11 7 -20 18 -20 25 0 20 -43 113 -52 113 -4 0 -8 6 -8 13 0 12 -80 93 -90
91 -3 -1 -14 5 -25 12 -11 7 -37 16 -57 19 -37 7 -38 7 -38 -24 0 -40 27 -108
46 -115 9 -3 13 -10 10 -14 -6 -10 38 -52 54 -52 5 0 13 -6 17 -14 10 -17 67
-46 91 -46 18 0 145 -116 146 -133 1 -5 9 -14 19 -21 9 -7 17 -18 17 -25 0 -6
4 -11 8 -11 5 0 8 -13 8 -30 0 -28 -1 -29 -18 -14 -9 9 -15 21 -11 27 3 5 1 7
-4 4 -6 -4 -18 4 -27 18 -9 14 -23 25 -30 25 -8 0 -17 7 -20 16 -3 8 -10 12
-16 9 -5 -3 -10 -1 -10 5 0 6 -4 8 -10 5 -5 -3 -10 -1 -10 4 0 6 -17 11 -39
11 -36 0 -38 -1 -34 -27 3 -16 7 -35 10 -43 3 -8 7 -20 8 -26 2 -7 22 -31 45
-54 41 -41 82 -61 153 -74 20 -4 37 -12 37 -18 0 -6 2 -9 5 -6 7 7 80 -64 77
-75 -1 -5 2 -6 7 -3 5 3 26 -14 46 -39 21 -24 41 -42 45 -40 4 3 15 -6 24 -20
9 -14 20 -24 25 -22 4 1 20 -13 35 -30 15 -18 33 -33 40 -33 7 0 21 -10 32
-22 12 -14 14 -18 4 -13 -12 6 27 -44 51 -65 6 -6 21 -43 19 -49 -1 -2 3 -7 9
-11 6 -3 13 -17 16 -30 2 -12 9 -38 16 -57 14 -43 6 -54 -11 -13 -7 16 -17 30
-22 30 -5 0 -6 5 -3 10 3 6 1 10 -4 10 -6 0 -11 7 -11 15 0 8 -4 15 -10 15 -5
0 -9 4 -7 8 6 20 -133 140 -155 134 -5 -1 -8 2 -8 7 0 5 -15 14 -32 21 -18 6
-41 16 -51 21 -25 14 -149 60 -172 65 -11 2 -21 8 -23 14 -2 6 -7 8 -12 5 -4
-3 -13 2 -20 10 -7 8 -17 15 -22 15 -13 0 -78 67 -78 80 0 6 -4 10 -8 10 -4 0
-14 16 -21 35 -7 19 -17 35 -22 35 -6 0 -7 5 -4 10 3 6 1 10 -4 10 -6 0 -11 8
-11 18 0 9 -11 30 -25 46 -14 16 -25 35 -25 43 0 7 -7 16 -15 19 -8 4 -13 10
-10 14 3 4 -7 15 -20 24 -14 9 -23 21 -20 26 3 5 -9 18 -25 30 -17 12 -29 25
-25 28 8 8 -86 102 -102 102 -8 0 -16 7 -19 15 -4 8 -12 15 -20 15 -8 0 -14 5
-14 11 0 5 -4 7 -10 4 -5 -3 -10 -1 -10 4 0 6 -9 11 -20 11 -11 0 -20 5 -20
10 0 6 -3 9 -7 9 -5 -1 -10 0 -13 1 -6 2 -17 5 -105 29 -38 10 -72 17 -75 15
-6 -7 32 -74 42 -74 5 0 7 -4 4 -9 -3 -5 1 -12 10 -15 8 -3 13 -10 10 -15 -4
-5 7 -20 24 -33 17 -13 42 -33 57 -45 14 -13 32 -23 39 -23 7 0 20 -7 28 -16
9 -8 16 -12 16 -9 0 4 12 -1 27 -10 16 -11 54 -20 97 -23 69 -4 101 -16 91
-32 -3 -5 6 -17 20 -28 14 -11 25 -25 25 -31 0 -7 7 -14 15 -17 8 -4 12 -10 9
-15 -3 -5 -1 -9 3 -9 5 0 17 -20 27 -45 11 -25 23 -45 28 -45 5 0 7 -4 3 -9
-3 -5 2 -16 10 -24 8 -9 15 -20 15 -26 0 -6 5 -11 11 -11 5 0 7 -5 3 -12 -4
-7 -3 -8 4 -4 8 5 12 0 12 -13 0 -25 -21 -19 -63 18 -16 14 -33 25 -38 24 -5
-2 -13 6 -19 17 -6 10 -26 27 -45 36 -19 9 -35 20 -35 25 0 5 -7 9 -15 9 -8 0
-15 5 -15 11 0 5 -4 7 -10 4 -5 -3 -10 -1 -10 5 0 6 -4 8 -10 5 -5 -3 -10 -1
-10 5 0 6 -4 8 -10 5 -5 -3 -10 -2 -10 3 0 13 -120 45 -151 40 -18 -2 -23 -8
-21 -23 2 -11 10 -25 18 -31 7 -6 11 -13 9 -16 -7 -6 61 -68 75 -68 5 0 10 -4
10 -10 0 -5 7 -10 15 -10 8 0 15 -4 15 -8 0 -25 179 -76 238 -68 26 3 42 2 42
-5 0 -6 5 -7 10 -4 6 3 10 2 10 -4 0 -5 16 -18 37 -28 20 -10 34 -21 32 -24
-6 -9 22 -40 31 -34 4 2 15 -4 25 -15 10 -11 24 -20 31 -20 7 0 29 -9 48 -21
20 -11 41 -22 48 -23 7 -1 28 -8 46 -15 40 -17 43 -41 4 -41 -16 0 -32 -3 -36
-7 -4 -5 -11 -8 -15 -8 -18 0 -41 -36 -41 -63 0 -30 22 -47 87 -66 25 -8 143
22 143 35 0 5 8 9 17 9 20 0 63 -38 63 -57 0 -7 5 -13 11 -13 5 0 8 -4 5 -9
-4 -5 -2 -11 4 -13 6 -2 12 -13 15 -26 2 -12 7 -28 12 -35 9 -15 9 -15 28
-102 8 -38 14 -90 14 -115 0 -42 -1 -44 -15 -25 -8 11 -21 27 -28 37 -8 9 -12
19 -9 21 2 3 -5 10 -16 17 -12 6 -21 16 -21 22 0 17 -71 88 -87 88 -8 0 -16 7
-19 15 -4 8 -12 15 -20 15 -8 0 -14 5 -14 11 0 5 -4 8 -9 4 -5 -3 -16 1 -24 9
-8 8 -23 16 -33 18 -10 2 -21 6 -24 10 -3 4 -21 10 -40 13 -19 3 -39 10 -45
14 -5 5 -35 14 -65 21 -63 15 -80 28 -83 58 -1 12 -5 22 -10 22 -4 0 -6 4 -2
9 3 5 -1 16 -9 24 -8 8 -12 17 -9 21 4 3 1 6 -5 6 -7 0 -12 6 -12 13 0 7 -9
18 -20 25 -12 7 -18 16 -15 21 2 5 -2 14 -10 21 -8 7 -15 10 -15 7 0 -3 -12 5
-27 19 -14 13 -28 22 -31 19 -3 -3 -10 -1 -16 4 -17 14 -98 41 -125 41 -17 0
-21 -3 -14 -12 6 -7 13 -25 17 -40 3 -16 11 -28 17 -28 6 0 7 -4 4 -10 -3 -5
-1 -10 4 -10 6 0 11 -5 11 -12 0 -16 61 -78 76 -78 6 0 15 -7 18 -16 3 -8 10
-12 16 -9 5 3 10 2 10 -3 0 -5 16 -17 35 -28 30 -16 46 -34 30 -34 -17 0 -191
64 -193 71 -2 5 -8 7 -13 3 -5 -3 -9 0 -9 5 0 6 -7 11 -15 11 -8 0 -25 11 -37
25 -11 13 -25 22 -30 19 -4 -3 -8 0 -8 5 0 6 -6 11 -13 11 -13 0 -71 59 -72
73 0 4 -5 11 -12 15 -6 4 -14 20 -17 36 -8 44 -38 116 -48 116 -5 0 -6 5 -3
10 3 6 1 10 -4 10 -6 0 -11 4 -11 10 0 12 -103 115 -112 112 -5 -1 -8 2 -8 7
0 8 -99 61 -114 61 -2 0 0 -16 6 -36 5 -20 11 -46 14 -57 2 -11 15 -37 29 -58
14 -21 25 -41 25 -43 0 -6 88 -96 95 -96 3 0 16 -9 27 -20 12 -11 39 -25 60
-31 22 -5 38 -16 38 -24 0 -8 5 -15 10 -15 6 0 10 -9 10 -21 0 -16 -4 -20 -17
-14 -44 17 -150 17 -207 1 l-58 -17 24 -22 c44 -43 111 -74 178 -84 67 -10
162 -10 201 -2 30 7 45 7 47 0 2 -6 8 -9 13 -5 5 3 9 0 9 -6 0 -6 5 -8 10 -5
6 3 10 1 10 -4 0 -6 3 -10 8 -9 4 1 25 -8 47 -20 l40 -21 -77 -1 c-56 0 -81
-4 -92 -16 -9 -8 -16 -11 -16 -6 0 11 -38 4 -56 -10 -7 -5 -23 -11 -35 -13
-13 -3 -25 -9 -27 -15 -2 -5 -10 -10 -18 -10 -8 0 -14 -4 -14 -10 0 -5 -3 -9
-7 -8 -5 2 -23 -12 -41 -30 -18 -17 -28 -33 -22 -33 14 -2 22 -5 45 -15 29
-12 155 -8 190 7 17 7 32 13 35 14 23 7 60 30 60 37 0 5 4 6 10 3 5 -3 15 3
22 15 7 11 16 20 20 20 4 0 19 11 34 25 26 24 69 28 114 12 8 -3 31 -8 50 -11
19 -3 50 -10 68 -15 18 -5 36 -10 40 -11 32 -5 52 -14 52 -25 0 -14 -21 -21
-95 -30 -49 -7 -135 -42 -135 -55 0 -4 -22 -10 -49 -14 -58 -8 -108 -39 -134
-83 -20 -35 -33 -127 -24 -165 7 -28 45 -74 58 -70 5 1 9 -2 9 -7 0 -13 64 -4
68 9 2 5 9 10 15 10 7 0 18 9 25 20 7 12 18 18 24 14 7 -4 8 -3 4 4 -3 6 2 16
12 21 28 15 43 84 40 180 l-3 84 45 12 c25 6 62 14 84 18 36 6 38 5 31 -16 -4
-12 -9 -33 -12 -46 -5 -22 -43 -70 -43 -55 0 15 -32 -22 -48 -55 -27 -57 -21
-193 10 -213 7 -4 9 -8 4 -8 -5 0 1 -11 14 -25 12 -13 27 -22 31 -19 5 3 9 0
9 -5 0 -6 15 -11 34 -11 43 0 84 33 100 81 16 46 20 135 6 144 -6 3 -8 11 -5
16 4 5 1 9 -4 9 -6 0 -11 5 -11 10 0 6 -14 24 -30 40 -27 26 -31 37 -29 75 2
25 7 45 11 45 5 0 6 4 3 10 -9 14 43 24 59 11 7 -6 16 -8 19 -4 4 3 7 1 7 -5
0 -6 10 -14 23 -17 22 -7 77 -60 77 -75 0 -4 7 -11 16 -14 9 -4 14 -9 11 -12
-3 -3 6 -22 19 -41 13 -19 21 -39 18 -44 -3 -5 0 -9 7 -9 7 0 9 -3 6 -7 -4 -3
-3 -11 2 -17 34 -41 52 -310 30 -432 -6 -32 -12 -63 -12 -69 -1 -5 -5 -12 -9
-15 -4 -3 -9 -18 -12 -34 -3 -15 -13 -34 -23 -42 -10 -7 -15 -14 -11 -14 17 0
-44 -50 -76 -61 -31 -11 -38 -11 -56 6 -11 10 -20 14 -20 9 0 -5 -5 -1 -11 9
-6 9 -14 15 -19 12 -4 -3 -11 2 -14 11 -3 8 -10 13 -15 10 -5 -3 -12 1 -15 10
-3 8 -10 12 -16 9 -5 -3 -10 -2 -10 3 0 11 -81 67 -92 64 -5 -1 -8 2 -8 8 0 5
-6 10 -13 10 -7 0 -18 9 -25 21 -7 12 -16 18 -19 15 -4 -3 -13 3 -20 14 -8 11
-19 18 -24 15 -5 -4 -12 1 -15 9 -3 9 -10 13 -15 10 -5 -3 -12 2 -15 10 -3 9
-11 16 -18 16 -6 0 -17 9 -24 21 -7 12 -16 18 -19 15 -3 -3 -14 5 -24 17 -10
12 -18 18 -19 14 0 -4 -7 -2 -15 5 -97 83 -109 93 -116 93 -4 0 -17 12 -29 27
-11 15 -24 27 -29 25 -4 -1 -33 26 -65 61 -33 34 -61 60 -64 57 -8 -8 -52 37
-46 47 3 5 0 7 -8 6 -7 -2 -12 2 -11 9 1 6 -19 31 -45 55 -26 23 -45 43 -42
44 3 0 -8 15 -25 32 -45 47 -55 60 -55 72 0 5 -4 10 -10 10 -5 0 -10 7 -10 15
0 8 -4 15 -10 15 -5 0 -10 7 -10 15 0 8 -5 15 -11 15 -5 0 -8 4 -4 9 3 6 -3
14 -12 20 -10 5 -16 11 -15 13 7 6 -21 58 -30 58 -5 0 -6 5 -3 10 3 6 1 10 -5
10 -6 0 -8 5 -5 10 3 6 1 10 -5 10 -6 0 -9 4 -5 9 3 5 -1 16 -9 24 -8 8 -12
17 -9 21 4 3 1 6 -5 6 -7 0 -12 8 -12 18 0 10 -4 22 -9 27 -10 12 -57 178 -71
254 -18 94 -12 276 11 371 11 47 22 90 23 95 1 6 17 42 36 80 18 39 32 73 32
78 -1 4 2 7 8 7 5 0 10 6 10 14 0 8 7 17 16 20 9 4 14 9 11 13 -4 3 5 14 18
25 14 11 25 23 25 27 0 12 84 97 103 104 9 3 17 11 17 17 0 5 7 10 15 10 9 0
18 7 21 15 4 8 9 13 14 10 4 -2 16 4 27 15 12 10 24 16 27 13 3 -4 6 -1 6 5 0
9 18 19 50 27 3 1 12 4 20 7 124 48 297 68 411 48z m1617 -287 c-12 -42 -49
-113 -60 -113 -4 0 -1 17 6 38 20 56 49 112 57 112 4 0 3 -17 -3 -37z m-1653
-75 c49 -55 71 -88 57 -88 -10 0 -60 52 -97 103 -40 55 -14 45 40 -15z m248
-33 c20 -79 31 -165 19 -145 -13 21 -52 178 -52 209 1 37 15 10 33 -64z m1074
-37 c-4 -62 -12 -116 -18 -122 -8 -8 -10 16 -6 94 4 98 12 140 25 140 3 0 2
-50 -1 -112z m-1689 -17 c62 -32 187 -120 179 -127 -9 -9 -116 37 -167 74 -48
33 -93 82 -76 82 4 0 32 -13 64 -29z m2291 3 c-25 -26 -225 -131 -234 -123 -6
7 151 114 195 133 54 23 67 20 39 -10z m-794 -148 c20 -66 31 -154 17 -141
-16 17 -62 161 -62 197 1 31 1 32 16 13 8 -11 21 -42 29 -69z m-656 -33 c-1
-119 -16 -100 -18 23 -1 62 3 84 16 84 2 0 2 -48 2 -107z m-271 -108 c61 -58
39 -59 -25 0 -26 24 -42 44 -35 45 7 0 34 -20 60 -45z m1480 29 c45 -9 82 -20
82 -24 0 -13 -125 -32 -249 -37 -102 -5 -123 -3 -119 8 10 30 100 64 178 68
14 1 62 -6 108 -15z m-719 -134 c10 -19 21 -51 24 -70 l7 -35 -25 30 c-26 31
-95 164 -95 181 1 14 70 -67 89 -106z m-1071 -42 c46 -28 81 -52 79 -54 -6 -6
-125 43 -171 70 -43 27 -96 71 -96 81 0 8 92 -40 188 -97z m826 -106 c3 -45 2
-82 -2 -82 -19 0 -53 203 -43 255 6 28 39 -101 45 -173z m-1173 0 c16 -24 29
-45 29 -48 0 -3 -21 12 -46 32 -45 37 -124 137 -124 158 0 15 107 -92 141
-142z m2285 56 c-26 -84 -73 -183 -95 -201 -12 -10 -14 -9 -7 8 5 11 14 40 21
65 20 76 83 200 100 200 2 0 -7 -33 -19 -72z m-236 -66 c0 -39 -31 -120 -76
-195 -25 -44 -48 -77 -50 -74 -6 6 64 206 89 250 22 40 37 48 37 19z m-1319
-78 c28 -14 49 -28 46 -30 -5 -5 -64 23 -97 45 -28 19 0 11 51 -15z m1879 11
c0 -9 -75 -52 -123 -70 -81 -31 -65 -7 24 34 84 40 99 45 99 36z m-1696 -114
c131 -76 210 -169 261 -305 32 -85 58 -226 57 -306 -2 -86 -22 -210 -34 -210
-6 0 -7 8 -4 17 4 9 10 68 13 129 12 231 -51 441 -168 563 -41 42 -183 141
-204 141 -5 0 -19 8 -30 16 -19 16 -19 16 5 9 14 -4 61 -28 104 -54z m1461 39
c-10 -11 -23 -20 -28 -20 -6 0 -2 9 8 20 10 11 23 20 28 20 6 0 2 -9 -8 -20z
m-2004 -13 c55 -29 82 -53 125 -109 46 -61 52 -87 12 -52 -62 54 -168 158
-168 166 0 11 3 10 31 -5z m1269 -77 c-6 -34 -15 -71 -21 -83 -14 -32 -4 90
10 127 18 45 23 24 11 -44z m-1531 4 c38 -8 77 -22 87 -30 17 -12 11 -13 -51
-8 -84 7 -216 33 -229 45 -16 15 120 10 193 -7z m829 -30 c37 -24 25 -31 -39
-22 -44 7 -69 6 -90 -3 -42 -17 -49 -2 -15 28 25 22 35 24 75 18 25 -4 56 -13
69 -21z m512 -7 c-5 -12 -19 -58 -31 -102 -11 -44 -25 -84 -30 -89 -4 -5 -4 8
2 30 32 129 53 193 60 188 5 -2 4 -15 -1 -27z m925 -131 l90 -21 -81 -3 c-63
-2 -94 2 -138 18 -117 44 -43 48 129 6z m-2045 -35 c0 -21 -165 -72 -228 -70
-59 2 134 71 216 78 6 1 12 -3 12 -8z m1224 -165 c-92 -94 -153 -201 -175
-313 -7 -35 -17 -63 -21 -63 -24 0 40 208 83 273 29 44 173 187 188 187 5 0
-29 -38 -75 -84z m-485 -138 c50 -102 69 -182 77 -318 12 -201 -23 -333 -113
-430 -30 -33 -60 -60 -66 -60 -6 0 5 17 25 38 131 134 168 501 74 733 -29 70
-110 195 -136 209 -10 5 -20 17 -24 27 -3 10 23 -12 58 -49 45 -47 77 -92 105
-150z m1026 152 c93 -44 130 -69 103 -70 -44 0 -147 44 -189 81 -37 34 -40 39
-19 34 14 -4 61 -24 105 -45z m-1603 -25 c2 -3 -15 -25 -38 -50 -24 -25 -57
-68 -74 -97 l-30 -53 0 33 c0 74 107 201 142 167z m238 -75 c0 -4 -11 -12 -25
-18 -20 -9 -25 -19 -25 -48 0 -35 -22 -74 -42 -74 -13 0 -9 67 6 104 8 19 22
38 31 44 19 10 55 5 55 -8z m1101 -22 c57 -45 117 -118 95 -118 -16 0 -156
126 -156 141 0 16 18 9 61 -23z m-572 -404 c-6 -49 -9 -156 -7 -239 6 -158 21
-227 70 -312 21 -36 21 -37 1 -20 -11 9 -37 54 -58 99 -36 77 -39 90 -43 193
-5 128 26 391 43 373 3 -2 0 -45 -6 -94z m144 -348 c15 -31 35 -70 47 -86 24
-33 25 -40 6 -40 -16 0 -59 61 -80 115 -18 47 -39 203 -29 218 4 7 12 -25 19
-69 6 -45 23 -107 37 -138z"/>
<path d="M3338 3919 c-26 -26 -45 -49 -42 -52 3 -3 -4 -10 -15 -17 -12 -6 -21
-17 -21 -25 0 -8 -4 -15 -9 -15 -8 0 -23 -33 -30 -65 -2 -5 -7 -15 -11 -20
-13 -16 -21 -61 -29 -163 -5 -64 -12 -96 -22 -103 -8 -5 -10 -9 -4 -9 5 0 -1
-7 -14 -16 -16 -12 -20 -19 -12 -27 8 -8 14 -8 23 1 7 7 9 12 4 12 -4 0 6 12
21 26 15 14 21 22 13 18 -13 -7 -13 -6 -1 9 8 10 16 15 19 12 7 -7 42 25 42
39 0 6 9 17 20 24 12 7 18 17 15 21 -2 5 2 11 10 15 8 3 15 12 15 21 0 8 4 15
9 15 15 0 59 103 71 167 11 52 10 170 -1 176 -2 1 -25 -19 -51 -44z m7 -116
c-17 -59 -102 -240 -117 -249 -33 -20 38 198 89 276 42 64 51 54 28 -27z"/>
<path d="M2503 3563 c-13 -14 -23 -38 -24 -52 -5 -120 37 -221 91 -221 20 0
71 44 68 59 -1 3 2 22 6 42 9 42 -7 111 -32 140 -9 11 -17 25 -17 32 0 7 -5
12 -12 12 -6 0 -15 3 -19 8 -14 14 -39 6 -61 -20z m37 -27 c0 -7 -7 -19 -15
-26 -16 -13 -20 -3 -9 24 8 20 24 21 24 2z"/>
<path d="M2141 1479 c-127 -16 -254 -109 -309 -226 -24 -53 -27 -69 -27 -173
0 -110 1 -118 33 -182 72 -147 225 -229 396 -214 99 8 136 21 208 69 117 79
170 180 169 328 -1 265 -199 432 -470 398z m129 -52 c44 -8 165 -96 134 -97
-5 0 -2 -6 6 -13 12 -10 43 -65 41 -74 0 -2 6 -22 13 -46 23 -75 20 -194 -5
-273 -13 -38 -30 -74 -39 -81 -8 -7 -12 -13 -7 -13 4 0 -11 -18 -34 -39 -56
-55 -158 -75 -249 -48 -49 15 -60 20 -60 28 0 5 -6 9 -13 9 -15 0 -66 50 -51
50 5 0 0 7 -10 15 -11 8 -17 15 -13 15 4 0 0 11 -9 24 -40 62 -57 226 -33 326
6 25 12 50 13 55 7 31 18 55 27 55 5 0 9 6 9 13 0 13 40 54 54 55 5 0 12 5 15
10 17 28 131 43 211 29z"/>
<path d="M255 1198 c-54 -145 -111 -298 -127 -340 -28 -75 -71 -128 -103 -128
-7 0 -15 -7 -19 -15 -5 -13 11 -15 109 -15 123 0 145 11 82 40 -19 9 -33 24
-35 36 -2 12 12 62 31 110 l34 89 141 3 140 3 37 -95 c43 -112 43 -137 -2
-150 -18 -6 -35 -16 -37 -23 -4 -10 27 -13 154 -13 136 0 160 2 160 15 0 8 -7
15 -15 15 -34 0 -68 27 -89 69 -12 26 -78 184 -146 354 l-124 307 -46 0 -47 0
-98 -262z m171 -11 l61 -152 -115 -3 c-63 -1 -117 -1 -119 2 -2 2 12 49 31
105 19 55 32 101 28 101 -4 0 -2 4 4 8 14 9 35 72 28 83 -3 5 1 9 8 9 7 0 39
-66 74 -153z"/>
<path d="M890 1452 c0 -5 17 -16 39 -24 35 -14 38 -19 44 -64 3 -27 4 -172 3
-323 -2 -272 -2 -274 -25 -292 -13 -11 -32 -19 -42 -19 -10 0 -19 -7 -19 -15
0 -13 28 -15 193 -15 275 0 355 21 459 118 91 85 128 196 108 324 -6 38 -20
88 -31 110 -34 66 -106 136 -178 171 l-66 32 -242 3 c-145 2 -243 0 -243 -6z
m382 -43 c92 -18 118 -27 118 -40 0 -5 5 -9 11 -9 12 0 89 -78 89 -90 0 -5 5
-21 12 -37 29 -73 35 -175 13 -267 -10 -42 -22 -76 -26 -76 -5 0 -9 -6 -9 -14
0 -8 -7 -17 -16 -20 -8 -3 -12 -10 -9 -16 3 -5 -5 -14 -19 -20 -14 -5 -26 -14
-26 -20 0 -5 -3 -9 -7 -8 -5 0 -28 -8 -53 -20 -43 -20 -89 -25 -207 -23 l-53
1 0 329 0 330 28 3 c63 8 103 7 154 -3z"/>
<path d="M2700 1451 c0 -5 10 -13 23 -17 58 -17 57 -9 57 -351 0 -300 -1 -314
-20 -333 -11 -11 -29 -20 -40 -20 -11 0 -20 -7 -20 -15 0 -13 23 -15 145 -15
122 0 145 2 145 15 0 8 -9 15 -19 15 -10 0 -29 9 -42 19 -22 18 -24 27 -28
140 l-3 121 73 0 c209 1 312 79 312 235 -1 88 -30 146 -91 183 -47 27 -48 27
-269 30 -144 2 -223 0 -223 -7z m385 -55 c14 -9 25 -14 25 -11 0 3 6 0 14 -7
8 -7 14 -15 13 -18 0 -3 5 -17 11 -31 24 -59 19 -146 -12 -192 -13 -19 -21
-39 -18 -43 4 -4 1 -4 -6 0 -7 4 -15 1 -18 -8 -3 -9 -10 -13 -15 -10 -5 3 -9
1 -9 -3 0 -5 -38 -10 -85 -12 l-85 -2 0 179 0 179 80 -3 c54 -1 88 -7 105 -18z"/>
<path d="M3396 1433 c-3 -16 -8 -48 -11 -73 -3 -25 -8 -57 -11 -72 -10 -49 19
-32 41 24 28 71 59 92 149 98 l73 5 -3 -325 c-3 -319 -3 -325 -25 -342 -12
-10 -30 -18 -40 -18 -10 0 -19 -7 -19 -15 0 -13 23 -15 145 -15 116 0 145 3
145 14 0 7 -13 16 -29 19 -17 4 -35 15 -40 26 -9 17 -15 289 -12 582 1 72 2
76 24 73 12 -1 44 -3 71 -3 40 -1 53 -6 81 -34 18 -18 38 -52 44 -75 7 -23 17
-42 24 -42 9 0 10 23 3 100 l-9 100 -298 0 -297 0 -6 -27z"/>
<path d="M585 421 c-36 -16 -114 -90 -115 -109 -1 -4 -5 -27 -10 -52 -19 -98
42 -213 128 -241 151 -50 300 36 310 180 5 72 -10 121 -51 168 -62 70 -176 94
-262 54z m129 -12 c33 -9 108 -69 88 -69 -4 0 0 -5 8 -10 23 -15 20 -230 -4
-230 -5 0 -7 -3 -4 -6 8 -7 -34 -50 -44 -47 -5 2 -8 -1 -8 -7 0 -5 -30 -8 -69
-7 -63 3 -72 6 -99 35 -17 18 -27 32 -24 32 4 0 1 4 -6 9 -29 18 -36 180 -11
229 37 71 92 94 173 71z"/>
<path d="M2215 421 c-188 -87 -158 -373 43 -411 215 -40 356 189 219 356 -59
71 -175 95 -262 55z m112 -7 c74 -11 132 -97 133 -196 0 -80 -45 -188 -71
-172 -5 3 -9 1 -9 -4 0 -5 -26 -10 -58 -11 -49 -2 -63 2 -94 26 -21 15 -37 34
-38 41 0 6 -5 12 -12 12 -6 0 -9 2 -6 5 3 3 0 24 -6 46 -8 28 -9 60 -4 102 5
34 9 68 10 75 1 6 5 12 10 12 5 0 7 4 3 9 -7 12 44 53 56 45 5 -3 9 -1 9 3 0
10 33 13 77 7z"/>
<path d="M57 417 c24 -13 55 -58 116 -168 32 -57 37 -75 37 -131 0 -66 -10
-86 -50 -101 -8 -3 28 -5 80 -6 72 0 89 3 70 10 -35 14 -40 26 -40 102 0 63 4
74 51 160 29 50 58 99 66 108 7 9 10 19 6 24 -5 4 -3 6 2 3 6 -3 19 -2 30 3
13 5 -5 8 -50 8 -52 0 -64 -3 -47 -9 12 -5 22 -16 22 -23 0 -17 -82 -166 -92
-167 -3 0 -27 37 -52 83 l-45 82 20 18 c21 16 18 17 -62 17 -72 -1 -81 -2 -62
-13z"/>
<path d="M980 417 c25 -12 25 -15 30 -157 6 -164 15 -193 76 -231 48 -30 135
-32 182 -4 58 35 71 80 73 247 0 82 4 146 7 144 4 -2 16 0 27 5 13 5 -4 8 -50
8 -63 1 -67 -1 -45 -12 25 -12 25 -14 28 -153 2 -132 1 -142 -21 -175 -39 -59
-122 -65 -171 -12 -34 36 -46 94 -46 216 0 108 4 120 45 130 11 2 -20 5 -70 6
-79 1 -87 -1 -65 -12z"/>
<path d="M1483 418 l27 -10 0 -184 0 -183 -27 -15 c-27 -14 -23 -15 62 -15 71
0 84 3 63 10 -26 10 -27 13 -30 99 -3 83 -2 89 18 93 17 3 32 -14 84 -100 l62
-103 61 0 60 0 -34 23 c-29 19 -137 159 -139 178 0 4 14 12 30 19 36 15 60 56
60 100 0 81 -40 100 -202 99 -95 0 -117 -3 -95 -11z m172 -8 c49 -11 61 -26
63 -83 3 -39 -1 -48 -28 -71 -24 -19 -43 -26 -76 -26 l-44 0 0 88 c0 49 3 92
7 95 9 9 30 8 78 -3z"/>
<path d="M2613 418 c36 -13 39 -29 33 -178 -2 -69 -5 -142 -5 -162 -1 -30 -6
-40 -28 -52 -26 -14 -15 -15 131 -13 l160 2 11 52 c7 29 9 53 6 53 -3 -1 -18
-18 -33 -40 -29 -42 -62 -54 -133 -48 l-40 3 0 185 0 184 25 13 c22 11 14 13
-65 12 -72 0 -85 -3 -62 -11z"/>
<path d="M3002 419 c34 -13 38 -31 37 -180 0 -166 -5 -196 -38 -214 -24 -13
-19 -14 64 -14 86 0 89 1 62 15 l-27 15 2 182 3 181 25 13 c22 11 14 13 -65
12 -70 0 -84 -3 -63 -10z"/>
<path d="M3227 418 c21 -10 56 -77 112 -218 45 -113 79 -188 89 -194 5 -3 25
36 45 87 116 301 118 307 145 322 26 14 24 14 -38 14 -49 0 -59 -3 -42 -9 12
-5 22 -15 22 -22 0 -18 -103 -288 -110 -288 -7 0 -120 274 -120 290 0 6 10 15
23 20 16 6 -2 9 -63 9 -66 0 -80 -3 -63 -11z"/>
<path d="M3710 417 l25 -13 3 -181 2 -182 -27 -15 c-26 -14 -16 -15 129 -16
175 0 161 -7 172 80 5 39 4 42 -6 26 -47 -70 -62 -79 -133 -80 l-69 -1 -4 98
-4 97 50 0 c48 0 82 -17 82 -41 0 -5 4 -9 8 -9 5 0 8 27 8 60 1 64 -5 74 -21
38 -8 -19 -19 -23 -66 -26 l-55 -3 0 78 1 78 66 3 c66 3 67 3 98 -35 l32 -38
-2 48 -3 47 -155 0 c-132 0 -152 -2 -131 -13z"/>
</g>
</svg>
